0
SECTION
2
HEADER
9
$ACADVER
1
AC1009
9
$INSUNITS
70
5
9
$EXTMIN
10
0.0000
20
0.0000
30
0.0
9
$EXTMAX
10
120.0000
20
150.0000
30
0.0
0
ENDSEC
0
SECTION
2
TABLES
0
TABLE
2
LAYER
70
5
0
LAYER
2
CUT
70
0
62
7
6
CONTINUOUS
0
LAYER
2
STRIP
70
0
62
1
6
CONTINUOUS
0
LAYER
2
LABELS
70
0
62
3
6
CONTINUOUS
0
LAYER
2
INNER
70
0
62
8
6
CONTINUOUS
0
LAYER
2
SEAM
70
0
62
4
6
CONTINUOUS
0
ENDTAB
0
TABLE
2
STYLE
70
1
0
STYLE
2
GRBPWR
70
0
40
0.0
41
1.0
50
0.0
71
0
42
0.2
3
txt
4

0
ENDTAB
0
ENDSEC
0
SECTION
2
ENTITIES
0
POLYLINE
8
STRIP
66
1
70
1
0
VERTEX
8
STRIP
10
0.0000
20
0.0000
30
0.0
0
VERTEX
8
STRIP
10
120.0000
20
0.0000
30
0.0
0
VERTEX
8
STRIP
10
120.0000
20
150.0000
30
0.0
0
VERTEX
8
STRIP
10
0.0000
20
150.0000
30
0.0
0
SEQEND
8
STRIP
0
POLYLINE
8
CUT
66
1
70
1
0
VERTEX
8
CUT
10
2.0000
20
2.0000
30
0.0
0
VERTEX
8
CUT
10
32.0000
20
2.0000
30
0.0
0
VERTEX
8
CUT
10
32.0000
20
47.0000
30
0.0
0
VERTEX
8
CUT
10
2.0000
20
47.0000
30
0.0
0
SEQEND
8
CUT
0
POLYLINE
8
SEAM
66
1
70
1
0
VERTEX
8
SEAM
10
3.0000
20
3.0000
30
0.0
0
VERTEX
8
SEAM
10
31.0000
20
3.0000
30
0.0
0
VERTEX
8
SEAM
10
31.0000
20
46.0000
30
0.0
0
VERTEX
8
SEAM
10
3.0000
20
46.0000
30
0.0
0
SEQEND
8
SEAM
0
POLYLINE
8
INNER
66
1
70
0
0
VERTEX
8
INNER
10
17.0000
20
4.0000
30
0.0
0
VERTEX
8
INNER
10
17.0000
20
45.0000
30
0.0
0
SEQEND
8
INNER
0
POLYLINE
8
CUT
66
1
70
1
0
VERTEX
8
CUT
10
40.0000
20
2.0000
30
0.0
0
VERTEX
8
CUT
10
10.0000
20
2.0000
30
0.0
0
VERTEX
8
CUT
10
10.0000
20
47.0000
30
0.0
0
VERTEX
8
CUT
10
40.0000
20
47.0000
30
0.0
0
SEQEND
8
CUT
0
POLYLINE
8
SEAM
66
1
70
1
0
VERTEX
8
SEAM
10
39.0000
20
3.0000
30
0.0
0
VERTEX
8
SEAM
10
11.0000
20
3.0000
30
0.0
0
VERTEX
8
SEAM
10
11.0000
20
46.0000
30
0.0
0
VERTEX
8
SEAM
10
39.0000
20
46.0000
30
0.0
0
SEQEND
8
SEAM
0
POLYLINE
8
INNER
66
1
70
0
0
VERTEX
8
INNER
10
25.0000
20
4.0000
30
0.0
0
VERTEX
8
INNER
10
25.0000
20
45.0000
30
0.0
0
SEQEND
8
INNER
0
POLYLINE
8
CUT
66
1
70
1
0
VERTEX
8
CUT
10
80.0000
20
2.0000
30
0.0
0
VERTEX
8
CUT
10
80.0000
20
36.0000
30
0.0
0
VERTEX
8
CUT
10
30.0000
20
36.0000
30
0.0
0
VERTEX
8
CUT
10
30.0000
20
2.0000
30
0.0
0
SEQEND
8
CUT
0
POLYLINE
8
CUT
66
1
70
1
0
VERTEX
8
CUT
10
2.0000
20
60.0000
30
0.0
0
VERTEX
8
CUT
10
6.0000
20
60.0000
30
0.0
0
VERTEX
8
CUT
10
6.0000
20
66.0000
30
0.0
0
VERTEX
8
CUT
10
2.0000
20
66.0000
30
0.0
0
SEQEND
8
CUT
0
TEXT
8
LABELS
10
55.0000
20
19.0000
30
0.0
40
2.0160
1
спинка (90°)
7
GRBPWR
50
0.0000
72
1
11
55.0000
21
19.0000
31
0.0
73
2
0
TEXT
8
LABELS
10
17.0000
20
24.5000
30
0.0
40
2.0160
1
полочка левая
7
GRBPWR
50
0.0000
72
1
11
17.0000
21
24.5000
31
0.0
73
2
0
TEXT
8
LABELS
10
25.0000
20
24.5000
30
0.0
40
2.0160
1
полочка левая
7
GRBPWR
50
90.0000
72
1
11
25.0000
21
24.5000
31
0.0
73
2
0
TEXT
8
LABELS
10
4.0000
20
63.0000
30
0.0
40
1.0518
1
подб…
7
GRBPWR
50
90.0000
72
1
11
4.0000
21
63.0000
31
0.0
73
2
0
ENDSEC
0
EOF
