<svg width="100" height="100" viewBox="0 0 100 100" fill="none" xmlns="http://www.w3.org/2000/svg">
<style>
  path { stroke: #000; }
  @media (prefers-color-scheme: dark) { path { stroke: #fff; } }
</style>
<g clip-path="url(#clip0_1147_6)">
<path d="M43.8772 4.00004H35.9342M43.8772 4.00004V11.9431M43.8772 4.00004H78.1619M43.8772 65.3497H35.9342M43.8772 65.3497V57.4066M43.8772 65.3497V73.2927M43.8772 65.3497L65.3496 65.3497M43.8772 65.3497L54.6134 126.699M35.9342 4.00004H23.9572H11.9802L4 11.9803L4.01988 34.6749L4 57.221V65.3497M4 65.3497H12.1286M4 65.3497V96.0245M97.5 4.00004L78 4V12.66M78 12.66L78.1619 4.00004L78 4M78 65.3496L118.761 65.3497M78 65.3496V34.6748M78 65.3496L86.8219 96.0245M78 65.3496L43.8772 34.6749M78 65.3496L65.3496 65.3497M78 65.3496L76.0857 126.699M43.8772 126.699H4V96.0245M43.8772 126.699H54.6134M43.8772 73.2927L43.8772 88.049L43.8772 126.699M126.699 88.0038V96.0245V99.9935V126.699H86.8219M86.8219 126.699V96.0245M86.8219 126.699H76.0857M126.699 126.699L86.8219 96.0245M35.9342 4.00004L43.8772 11.9431M43.8772 11.9431V34.6749M4 57.221L12.1286 65.3497M12.1286 65.3497H35.9342M35.9342 65.3497L43.8772 57.4066M35.9342 65.3497L43.8772 73.2927M43.8772 57.4066V34.6749M78 12.66V26.7163V34.6748M118.761 65.3497L126.699 57.4116V42.6875L118.687 34.6749M118.761 65.3497L126.699 73.2877V88.0038M43.8772 34.6749H23.9572M43.8772 34.6749L78 34.6748M78 34.6748L118.687 34.6749M4 96.0245H35.9018M86.8219 96.0245H35.9018M86.8219 96.0245H97.5M118.687 34.6749L126.699 26.6622V11.9381L118.761 4.00004H97.5M126.699 88.0038L118.679 96.0245H97.5M43.8772 88.049L35.9018 96.0245M65.3496 65.3497L54.6134 126.699M65.3496 65.3497L76.0857 126.699M54.6134 126.699H65.3496H76.0857M97.5 96.0245V4.00004" stroke-width="7.83502"/>
</g>
<defs>
<clipPath id="clip0_1147_6">
<rect width="100" height="100" fill="white"/>
</clipPath>
</defs>
</svg>
