<?xml version="1.0" encoding="UTF-8" standalone="no"?>
<!-- Creator: fig2dev Version 3.2 Patchlevel 4 -->
<!-- CreationDate: Sun Jan 27 16:46:17 2008 -->
<svg
   xmlns:dc="http://purl.org/dc/elements/1.1/"
   xmlns:cc="http://web.resource.org/cc/"
   xmlns:rdf="http://www.w3.org/1999/02/22-rdf-syntax-ns#"
   xmlns:svg="http://www.w3.org/2000/svg"
   xmlns="http://www.w3.org/2000/svg"
   xmlns:sodipodi="http://sodipodi.sourceforge.net/DTD/sodipodi-0.dtd"
   xmlns:inkscape="http://www.inkscape.org/namespaces/inkscape"
   width="150.55544"
   height="150.55544"
   viewBox="0 0 20157 13858"
   id="svg2"
   sodipodi:version="0.32"
   inkscape:version="0.45.1"
   sodipodi:docname="Trockner_hohe_Temperatur.svg"
   inkscape:output_extension="org.inkscape.output.svg.inkscape"
   sodipodi:docbase="C:\Documents and Settings\Donald Thomas\My Documents\temp\4"
   version="1.0">
  <metadata
     id="metadata281">
    <rdf:RDF>
      <cc:Work
         rdf:about="">
        <dc:format>image/svg+xml</dc:format>
        <dc:type
           rdf:resource="http://purl.org/dc/dcmitype/StillImage" />
      </cc:Work>
    </rdf:RDF>
  </metadata>
  <defs
     id="defs279" />
  <sodipodi:namedview
     inkscape:window-height="666"
     inkscape:window-width="744"
     inkscape:pageshadow="2"
     inkscape:pageopacity="0.0"
     guidetolerance="10.0"
     gridtolerance="10.0"
     objecttolerance="10.0"
     borderopacity="1.0"
     bordercolor="#666666"
     pagecolor="#ffffff"
     id="base"
     inkscape:zoom="2.504061"
     inkscape:cx="75.277718"
     inkscape:cy="69.793769"
     inkscape:window-x="22"
     inkscape:window-y="29"
     inkscape:current-layer="svg2" />
  <g
     style="fill:none;stroke:#000000;stroke-width:0.025in"
     id="g4"
     transform="matrix(7.0479497,0,0,7.0466822,-23138.418,-12922.117)">
    <defs
       id="defs6">
      <pattern
         id="tile1"
         x="0"
         y="0"
         width="200"
         height="200"
         patternUnits="userSpaceOnUse">
        <path
           d="M 0 -100 200 16"
           id="path9" />
        <path
           d="M 0 -60 200 56"
           id="path11" />
        <path
           d="M 0 -20 200 96"
           id="path13" />
        <path
           d="M 0 20 200 136"
           id="path15" />
        <path
           d="M 0 60 200 176"
           id="path17" />
        <path
           d="M 0 100 200 216"
           id="path19" />
        <path
           d="M 0 140 200 256"
           id="path21" />
        <path
           d="M 0 180 200 296"
           id="path23" />
      </pattern>
      <pattern
         id="tile2"
         x="0"
         y="0"
         width="200"
         height="200"
         patternUnits="userSpaceOnUse">
        <path
           d="M 200 -100 0 16"
           id="path26" />
        <path
           d="M 200 -60 0 56"
           id="path28" />
        <path
           d="M 200 -20 0 96"
           id="path30" />
        <path
           d="M 200 20 0 136"
           id="path32" />
        <path
           d="M 200 60 0 176"
           id="path34" />
        <path
           d="M 200 100 0 216"
           id="path36" />
        <path
           d="M 200 140 0 256"
           id="path38" />
        <path
           d="M 200 180 0 296"
           id="path40" />
      </pattern>
      <pattern
         id="tile3"
         x="0"
         y="0"
         width="200"
         height="200"
         patternUnits="userSpaceOnUse">
        <path
           d="M 0 -100 200 16"
           id="path43" />
        <path
           d="M 200 -100 0 16"
           id="path45" />
        <path
           d="M 0 -60 200 56"
           id="path47" />
        <path
           d="M 200 -60 0 56"
           id="path49" />
        <path
           d="M 0 -20 200 96"
           id="path51" />
        <path
           d="M 200 -20 0 96"
           id="path53" />
        <path
           d="M 0 20 200 136"
           id="path55" />
        <path
           d="M 200 20 0 136"
           id="path57" />
        <path
           d="M 0 60 200 176"
           id="path59" />
        <path
           d="M 200 60 0 176"
           id="path61" />
        <path
           d="M 0 100 200 216"
           id="path63" />
        <path
           d="M 200 100 0 216"
           id="path65" />
        <path
           d="M 0 140 200 256"
           id="path67" />
        <path
           d="M 200 140 0 256"
           id="path69" />
        <path
           d="M 0 180 200 296"
           id="path71" />
        <path
           d="M 200 180 0 296"
           id="path73" />
      </pattern>
      <pattern
         id="tile4"
         x="0"
         y="0"
         width="200"
         height="200"
         patternUnits="userSpaceOnUse">
        <path
           d="M 100 0 200 100"
           id="path76" />
        <path
           d="M 0 0 200 200"
           id="path78" />
        <path
           d="M 0 100 100 200"
           id="path80" />
      </pattern>
      <pattern
         id="tile5"
         x="0"
         y="0"
         width="200"
         height="200"
         patternUnits="userSpaceOnUse">
        <path
           d="M 100 0 0 100"
           id="path83" />
        <path
           d="M 200 0 0 200"
           id="path85" />
        <path
           d="M 200 100 100 200"
           id="path87" />
      </pattern>
      <pattern
         id="tile6"
         x="0"
         y="0"
         width="200"
         height="200"
         patternUnits="userSpaceOnUse">
        <path
           d="M 100 0 200 100"
           id="path90" />
        <path
           d="M 0 0 200 200"
           id="path92" />
        <path
           d="M 0 100 100 200"
           id="path94" />
        <path
           d="M 100 0 0 100"
           id="path96" />
        <path
           d="M 200 0 0 200"
           id="path98" />
        <path
           d="M 200 100 100 200"
           id="path100" />
      </pattern>
      <pattern
         id="tile7"
         x="0"
         y="0"
         width="200"
         height="200"
         patternUnits="userSpaceOnUse">
        <path
           d="M 0 0 0 50"
           id="path103" />
        <path
           d="M 0 50 200 50"
           id="path105" />
        <path
           d="M 100 50 100 150"
           id="path107" />
        <path
           d="M 0 150 200 150"
           id="path109" />
        <path
           d="M 0 150 0 200"
           id="path111" />
      </pattern>
      <pattern
         id="tile8"
         x="0"
         y="0"
         width="200"
         height="200"
         patternUnits="userSpaceOnUse">
        <path
           d="M 0 0 50 0"
           id="path114" />
        <path
           d="M 50 0 50 200"
           id="path116" />
        <path
           d="M 50 100 150 100"
           id="path118" />
        <path
           d="M 150 0 150 200"
           id="path120" />
        <path
           d="M 150 0 200 0"
           id="path122" />
      </pattern>
      <pattern
         id="tile9"
         x="0"
         y="0"
         width="200"
         height="200"
         patternUnits="userSpaceOnUse">
        <path
           d="M 0 50 200 50"
           id="path125" />
        <path
           d="M 0 150 200 150"
           id="path127" />
      </pattern>
      <pattern
         id="tile10"
         x="0"
         y="0"
         width="200"
         height="200"
         patternUnits="userSpaceOnUse">
        <path
           d="M 50 0 50 200"
           id="path130" />
        <path
           d="M 150 0 150 200"
           id="path132" />
      </pattern>
      <pattern
         id="tile11"
         x="0"
         y="0"
         width="200"
         height="200"
         patternUnits="userSpaceOnUse">
        <path
           d="M 0 50 200 50"
           id="path135" />
        <path
           d="M 0 150 200 150"
           id="path137" />
        <path
           d="M 50 0 50 200"
           id="path139" />
        <path
           d="M 150 0 150 200"
           id="path141" />
      </pattern>
      <pattern
         id="tile12"
         x="0"
         y="0"
         width="200"
         height="200"
         patternUnits="userSpaceOnUse">
        <path
           d="M 0 0 25 50"
           id="path144" />
        <path
           d="M 0 50 200 50"
           id="path146" />
        <path
           d="M 100 50 125 150"
           id="path148" />
        <path
           d="M 0 150 200 150"
           id="path150" />
        <path
           d="M 0 150 25 200"
           id="path152" />
      </pattern>
      <pattern
         id="tile13"
         x="0"
         y="0"
         width="200"
         height="200"
         patternUnits="userSpaceOnUse">
        <path
           d="M 200 0 175 50"
           id="path155" />
        <path
           d="M 0 50 200 50"
           id="path157" />
        <path
           d="M 100 50 75 150"
           id="path159" />
        <path
           d="M 0 150 200 150"
           id="path161" />
        <path
           d="M 200 150 175 200"
           id="path163" />
      </pattern>
      <pattern
         id="tile14"
         x="0"
         y="0"
         width="200"
         height="200"
         patternUnits="userSpaceOnUse">
        <path
           d="M 0 0 50 25"
           id="path166" />
        <path
           d="M 50 0 50 200"
           id="path168" />
        <path
           d="M 50 100 150 125"
           id="path170" />
        <path
           d="M 150 0 150 200"
           id="path172" />
        <path
           d="M 150 0 200 25"
           id="path174" />
      </pattern>
      <pattern
         id="tile15"
         x="0"
         y="0"
         width="200"
         height="200"
         patternUnits="userSpaceOnUse">
        <path
           d="M 0 25 50 0"
           id="path177" />
        <path
           d="M 50 0 50 200"
           id="path179" />
        <path
           d="M 50 125 150 100"
           id="path181" />
        <path
           d="M 150 0 150 200"
           id="path183" />
        <path
           d="M 150 25 200 0"
           id="path185" />
      </pattern>
      <pattern
         id="tile16"
         x="0"
         y="0"
         width="200"
         height="200"
         patternUnits="userSpaceOnUse">
        <path
           d="M 0 50 A 50 50 0 1 0 100 50"
           id="path188" />
        <path
           d="M 100 50 A 50 50 0 1 0 200 50"
           id="path190" />
        <path
           d="M 50 100 A 50 50 0 1 0 150 100"
           id="path192" />
        <path
           d="M 0 150 A 50 50 0 0 0 50 100"
           id="path194" />
        <path
           d="M 150 100 A 50 50 0 1 0 200 50"
           id="path196" />
        <path
           d="M 50 0 A 50 50 0 1 0 150 0"
           id="path198" />
        <path
           d="M 150 0 A 50 50 0 0 0 200 50"
           id="path200" />
        <path
           d="M 0 50 A 50 50 0 0 0 50 0"
           id="path202" />
        <path
           d="M 0 150 A 50 50 0 1 0 100 150"
           id="path204" />
        <path
           d="M 100 150 A 50 50 0 1 0 200 150"
           id="path206" />
      </pattern>
      <pattern
         id="tile17"
         x="0"
         y="0"
         width="100"
         height="100"
         patternUnits="userSpaceOnUse">
        <g
           transform="scale(0.5)"
           id="g209">
          <path
             d="M 0 50 A 50 50 0 1 0 100 50"
             id="path211" />
          <path
             d="M 100 50 A 50 50 0 1 0 200 50"
             id="path213" />
          <path
             d="M 50 100 A 50 50 0 1 0 150 100"
             id="path215" />
          <path
             d="M 0 150 A 50 50 0 0 0 50 100"
             id="path217" />
          <path
             d="M 150 100 A 50 50 0 1 0 200 50"
             id="path219" />
          <path
             d="M 50 0 A 50 50 0 1 0 150 0"
             id="path221" />
          <path
             d="M 150 0 A 50 50 0 0 0 200 50"
             id="path223" />
          <path
             d="M 0 50 A 50 50 0 0 0 50 0"
             id="path225" />
          <path
             d="M 0 150 A 50 50 0 1 0 100 150"
             id="path227" />
          <path
             d="M 100 150 A 50 50 0 1 0 200 150"
             id="path229" />
        </g>
      </pattern>
      <pattern
         id="tile18"
         x="0"
         y="0"
         width="200"
         height="200"
         patternUnits="userSpaceOnUse">
        <circle
           cx="100"
           cy="100"
           r="100"
           id="circle232" />
      </pattern>
      <pattern
         id="tile19"
         x="0"
         y="0"
         width="200"
         height="200"
         patternUnits="userSpaceOnUse">
        <path
           d="M 0 50 45 0 105 0 140 50 200 50 "
           id="path235" />
        <path
           d="M 0 50 45 100 105 100 140 50 200 50"
           id="path237" />
        <path
           d="M 0 150 45 100 105 100 140 150 200 150"
           id="path239" />
        <path
           d="M 0 150 45 200 105 200 140 150 200 150"
           id="path241" />
      </pattern>
      <pattern
         id="tile20"
         x="0"
         y="0"
         width="200"
         height="200"
         patternUnits="userSpaceOnUse">
        <path
           d="M 0 70 65 0 140 0 200 70 "
           id="path244" />
        <path
           d="M 0 70 0 130 65 200 140 200 200 130 200 70"
           id="path246" />
      </pattern>
      <pattern
         id="tile21"
         x="0"
         y="0"
         width="200"
         height="200"
         patternUnits="userSpaceOnUse">
        <path
           d="M 50 0 75 25 100 0 M 150 0 175 25 200 0"
           id="path249" />
        <path
           d="M 0 50 25 25 75 75 125 25 175 75 200 50"
           id="path251" />
        <path
           d="M 0 100 25 75 75 125 125 75 175 125 200 100"
           id="path253" />
        <path
           d="M 0 150 25 125 75 175 125 125 175 175 200 150"
           id="path255" />
        <path
           d="M 0 200 25 175 75 225 125 175 175 225 200 200"
           id="path257" />
      </pattern>
      <pattern
         id="tile22"
         x="0"
         y="0"
         width="200"
         height="200"
         patternUnits="userSpaceOnUse">
        <path
           d="M 0 50 25 75 0 100 M 0 150 25 175 0 200"
           id="path260" />
        <path
           d="M 50 0 25 25 75 75 25 125 75 175 50 200"
           id="path262" />
        <path
           d="M 100 0 75 25 125 75 75 125 125 175 100 200"
           id="path264" />
        <path
           d="M 150 0 125 25 175 75 125 125 175 175 150 200"
           id="path266" />
        <path
           d="M 200 0 175 25 225 75 175 125 225 175 200 200"
           id="path268" />
      </pattern>
    </defs>
<!-- Circle -->    <circle
       cx="4724"
       cy="2834"
       r="1379"
       style="stroke:#000000;stroke-width:48"
       id="circle270"
       sodipodi:cx="4724"
       sodipodi:cy="2834"
       sodipodi:rx="1379"
       sodipodi:ry="1379" />
<!-- Circle -->    <circle
       cx="4056"
       cy="2834"
       r="195"
       style="fill:#000000;stroke:#000000;stroke-width:16"
       id="circle272"
       sodipodi:cx="4056"
       sodipodi:cy="2834"
       sodipodi:rx="195"
       sodipodi:ry="195" />
<!-- Circle -->    <circle
       cx="5426"
       cy="2834"
       r="195"
       style="fill:#000000;stroke:#000000;stroke-width:16"
       id="circle274"
       sodipodi:cx="5426"
       sodipodi:cy="2834"
       sodipodi:rx="195"
       sodipodi:ry="195" />
<!-- Line -->    <path
       d="M 3307,1417 L 6141,1417 L 6141,4251 L 3307,4251 L 3307,1417"
       style="stroke:#000000;stroke-width:48"
       id="path276" />
  </g>
</svg>
