<svg id="Layer_1" data-name="Layer 1" xmlns="http://www.w3.org/2000/svg" viewBox="0 0 512 512"><title>dryclean-any-solvent</title><path d="M256,31.52C379.79,31.52,480.5,132.21,480.5,256S379.79,480.5,256,480.5,31.51,379.79,31.51,256,132.21,31.52,256,31.52M256,0C114.62,0,0,114.61,0,256S114.62,512,256,512,512,397.39,512,256,397.38,0,256,0Z" fill="#58595b"/><path d="M221,302l-18.28,60.19h-40l68.07-212.38h49.48l69,212.38H307.37L288.15,302Zm60.83-29.31-16.71-52.3c-4.09-12.92-7.55-27.42-10.71-39.71h-.63c-3.15,12.29-6.62,27.11-10.09,39.71l-16.39,52.3Z" fill="#58595b"/></svg>